<?xml version="1.0" encoding="UTF-8"?>
<svg enable-background="new 0 0 278.4 194.3" version="1.1" viewBox="0 0 278.4 194.3" xml:space="preserve" xmlns="http://www.w3.org/2000/svg">
<style type="text/css">
	.st0{fill:url(#i);}
	.st1{fill:url(#h);}
	.st2{fill:url(#g);}
	.st3{fill:url(#f);}
	.st4{fill:url(#e);}
	.st5{fill:url(#d);}
	.st6{fill:url(#c);}
	.st7{fill:url(#b);}
	.st8{fill:url(#a);}
	.st9{fill:url(#p);}
	.st10{opacity:0.75;fill:url(#o);}
	.st11{fill:url(#n);}
	.st12{fill:url(#m);}
	.st13{fill:url(#l);}
	.st14{fill:url(#k);}
	.st15{fill:#FFFFFF;}
	.st16{opacity:0.75;fill:url(#j);}
	.st17{fill:url(#SVGID_17_);}
	.st18{fill:url(#SVGID_18_);}
	.st19{fill:url(#SVGID_19_);}
	.st20{fill:url(#SVGID_20_);}
	.st21{fill:url(#SVGID_21_);}
	.st22{fill:url(#SVGID_22_);}
	.st23{fill:url(#SVGID_23_);}
	.st24{fill:url(#SVGID_24_);}
	.st25{fill:url(#SVGID_25_);}
	.st26{fill:url(#SVGID_26_);}
	.st27{opacity:0.75;fill:url(#SVGID_27_);}
	.st28{fill:url(#SVGID_28_);}
	.st29{fill:url(#SVGID_29_);}
	.st30{fill:url(#SVGID_30_);}
	.st31{fill:url(#SVGID_31_);}
	.st32{opacity:0.75;fill:url(#SVGID_32_);}
</style>


	<linearGradient id="i" x1="46.713" x2="260.15" y1="54.791" y2="-35.061" gradientUnits="userSpaceOnUse">
		<stop stop-color="#43424D" offset=".2584"/>
		<stop stop-color="#5F606F" offset=".9224"/>
		<stop stop-color="#626473" offset="1"/>
	</linearGradient>
	<polygon class="st0" points="136.8 27.3 140 0 145.7 0 148.8 27.3"/>
	<linearGradient id="h" x1="42.744" x2="256.18" y1="45.363" y2="-44.491" gradientUnits="userSpaceOnUse">
		<stop stop-color="#43424D" offset=".2584"/>
		<stop stop-color="#626473" offset="1"/>
	</linearGradient>
	<polygon class="st1" points="94 38.8 84.9 12.9 90.1 10.4 104.8 33.6"/>

		<linearGradient id="g" x1="20.254" x2="233.69" y1="87.501" y2="-2.3511" gradientTransform="matrix(.9594 -.2821 .2821 .9594 -36.287 2.438)" gradientUnits="userSpaceOnUse">
		<stop stop-color="#43424D" offset=".2584"/>
		<stop stop-color="#626473" offset="1"/>
	</linearGradient>
	<polygon class="st2" points="55.2 59.9 39.1 37.6 43.4 33.8 64.1 51.9"/>

		<linearGradient id="f" x1="-227" x2="-13.564" y1="14.8" y2="-75.052" gradientTransform="matrix(-.9594 -.2821 -.2821 .9594 54.554 2.438)" gradientUnits="userSpaceOnUse">
		<stop stop-color="#43424D" offset=".2584"/>
		<stop stop-color="#626473" offset="1"/>
	</linearGradient>
	<polygon class="st3" points="220.8 59.9 236.9 37.6 232.6 33.8 211.9 51.9"/>
	<linearGradient id="e" x1="57.401" x2="270.83" y1="80.175" y2="-9.6762" gradientUnits="userSpaceOnUse">
		<stop stop-color="#43424D" offset=".2584"/>
		<stop stop-color="#626473" offset="1"/>
	</linearGradient>
	<polygon class="st4" points="187.4 38.8 196.6 12.9 191.4 10.4 176.6 33.6"/>

		<radialGradient id="d" cx="154.78" cy="132.32" r="135.43" gradientTransform="matrix(1 0 0 .9047 0 12.605)" gradientUnits="userSpaceOnUse">
		<stop stop-color="#fff" offset="0"/>
		<stop stop-color="#FBFBFB" offset=".2431"/>
		<stop stop-color="#EFEFEF" offset=".4862"/>
		<stop stop-color="#DBDBDB" offset=".7287"/>
		<stop stop-color="#D1D1D1" offset=".824"/>
		<stop stop-color="#DEDEDE" offset=".9356"/>
	</radialGradient>
	<path class="st5" d="m0 114.4s130.2-182.4 278.4 0c0 0-133.9 179.8-278.4 0z"/>

		<linearGradient id="c" x1="83.358" x2="376.23" y1="69.452" y2="69.452" gradientUnits="userSpaceOnUse">
			<stop stop-color="#43424D" offset=".2584"/>
			<stop stop-color="#626473" offset="1"/>
		</linearGradient>
		<path class="st6" d="m0 114.4c14.4-24.1 34.1-45.2 57.5-62 23.3-16.6 52.1-28.3 82.2-27.9 7.4 0.3 14.8 0.6 22 2 7.3 0.9 14.4 3 21.5 5.1 13.8 5 27.2 11 39 19.5 23.7 16.4 43.4 38.1 56.2 63.2-18.8-20.8-40.1-38.3-63.5-51.5-23.4-13-49.2-20.7-75.4-20.7-25.9-0.7-51.3 8.6-74.6 21.8-23.3 13.6-44.9 30.9-64.9 50.5z"/>


		<radialGradient id="b" cx="140.78" cy="168.19" r="207.37" gradientTransform="matrix(1 0 0 .7994 0 33.743)" gradientUnits="userSpaceOnUse">
		<stop stop-color="#fff" offset="0"/>
		<stop stop-color="#fff" stop-opacity="0" offset=".6407"/>
	</radialGradient>
	<path class="st7" d="m40.4 156c42.7-34.5 115.2-68.2 196.8-0.8 25.9-20.3 41.2-40.8 41.2-40.8-148.2-182.5-278.4 0-278.4 0 13.6 16.9 27.1 30.6 40.4 41.6z"/>




			<linearGradient id="a" x1="108.71" x2="169.65" y1="170.07" y2="170.07" gradientUnits="userSpaceOnUse">
				<stop stop-color="#43424D" offset=".2584"/>
				<stop stop-color="#626473" offset="1"/>
			</linearGradient>
			<path class="st8" d="m169.6 179.1c-19.5 4-39.6 4.1-59.1 0.4l-1.8-0.4v-1c0-11.1 9-20.1 20.1-20.1h20.8c11.1 0 20.1 9 20.1 20.1v1z"/>


			<linearGradient id="p" x1="198.04" x2="149.21" y1="48.396" y2="103.86" gradientUnits="userSpaceOnUse">
				<stop stop-color="#757487" offset=".1295"/>
				<stop stop-color="#9497AD" offset="1"/>
			</linearGradient>
			<circle class="st9" cx="138" cy="116.6" r="49.2"/>


			<linearGradient id="o" x1="93.702" x2="171.04" y1="176.16" y2="57.418" gradientTransform="matrix(1.0006 -.0023 -.0023 1.0084 -.5634 1.4467)" gradientUnits="userSpaceOnUse">
			<stop stop-color="#9497AD" stop-opacity="0" offset=".459"/>
			<stop stop-color="#9497AD" offset=".6571"/>
		</linearGradient>
		<path class="st10" d="m179 112.2c-4.6 16.7-24.7 25.7-44.9 20.1s-32.8-23.6-28.2-40.3 24.7-25.7 44.9-20.1 32.8 23.6 28.2 40.3z"/>
		<linearGradient id="n" x1="174.11" x2="159.53" y1="71.36" y2="85.422" gradientUnits="userSpaceOnUse">
			<stop stop-color="#A7DAF5" stop-opacity="0" offset=".3015"/>
			<stop stop-color="#A7DAF5" offset="1"/>
		</linearGradient>
		<path class="st11" d="m167.9 87.2c-1.2 1.6-4.7 0.9-7.9-1.5s-4.8-5.6-3.6-7.1c1.2-1.6 4.7-0.9 7.9 1.5 3.2 2.3 4.8 5.5 3.6 7.1z"/>
		<linearGradient id="m" x1="180.06" x2="165.48" y1="77.528" y2="91.591" gradientUnits="userSpaceOnUse">
			<stop stop-color="#A7DAF5" stop-opacity="0" offset=".3015"/>
			<stop stop-color="#A7DAF5" offset="1"/>
		</linearGradient>
		<path class="st12" d="m167 94.8c-0.6 0.7-2.2 0.4-3.7-0.7s-2.3-2.7-1.7-3.4 2.2-0.4 3.7 0.7 2.3 2.7 1.7 3.4z"/>
		<radialGradient id="l" cx="145.16" cy="100.9" r="67.259" gradientUnits="userSpaceOnUse">
			<stop stop-color="#DEA3D7" stop-opacity="0" offset=".637"/>
			<stop stop-color="#DEA3D7" offset=".7687"/>
		</radialGradient>
		<path class="st13" d="m147.9 139.4c-24 0-43.4-19.4-43.4-43.4 0-2.9 0.3-5.7 0.8-8.4-5.9 7.4-9.4 16.8-9.4 27 0 24 19.4 43.4 43.4 43.4 21.1 0 38.7-15.1 42.6-35-7.9 10-20.2 16.4-34 16.4z"/>
		<linearGradient id="k" x1="125.09" x2="107.65" y1="128.22" y2="151.14" gradientUnits="userSpaceOnUse">
			<stop stop-color="#A7DAF5" stop-opacity="0" offset=".3015"/>
			<stop stop-color="#A7DAF5" offset="1"/>
		</linearGradient>
		<path class="st14" d="m91.1 115.2c0.3 3.2 0.9 6.4 1.8 9.6 0.8 3.1 1.9 6.2 3.1 9.1 2.6 5.9 6.1 11.3 10.6 15.7 2.2 2.3 4.8 4.2 7.5 5.9 1.3 0.9 2.7 1.6 4.1 2.4 0.7 0.4 1.5 0.7 2.2 1s1.5 0.7 2.2 0.9c6 2.3 12.4 3.7 18.8 4.4-6.5 0.1-13.1-0.7-19.4-2.8s-12.2-5.6-16.9-10.3-8.4-10.5-10.7-16.7c-2.2-6-3.4-12.6-3.3-19.2z"/>

			<path class="st15" d="m169.1 118.3c0-1.4-1.2-2.7-2.7-2.7 1.4 0 2.7-1.2 2.7-2.7 0 1.4 1.2 2.7 2.7 2.7-1.4 0.1-2.7 1.3-2.7 2.7z"/>


			<path class="st15" d="m112.6 96.6c0-1.4-1.2-2.7-2.7-2.7 1.4 0 2.7-1.2 2.7-2.7 0 1.4 1.2 2.7 2.7 2.7-1.4 0.1-2.7 1.3-2.7 2.7z"/>


			<path class="st15" d="m119.2 129.4c0-1.4-1.2-2.7-2.7-2.7 1.4 0 2.7-1.2 2.7-2.7 0 1.4 1.2 2.7 2.7 2.7-1.4 0.1-2.7 1.3-2.7 2.7z"/>


			<circle class="st15" cx="163" cy="128.8" r="6.7"/>

		<linearGradient id="j" x1="107.2" x2="153.89" y1="163.99" y2="163.99" gradientUnits="userSpaceOnUse">
			<stop stop-color="#9497AD" stop-opacity="0" offset="0"/>
			<stop stop-color="#9497AD" offset="1"/>
		</linearGradient>
		<path class="st16" d="m131.8 170c10.4 0 20-3.2 28-8.7-3.2-2-7.1-3.2-11.2-3.2h-18.7c-6.8 0-12.9 3.3-16.7 8.3 5.6 2.3 11.9 3.6 18.6 3.6z"/>


</svg>
